<svg xmlns="http://www.w3.org/2000/svg" class="" viewBox="140 60 360 360"
    style="shape-rendering:geometricPrecision;text-rendering:geometricPrecision;image-rendering:optimizeQuality;fill-rule:evenodd;clip-rule:evenodd"
    xmlns:xlink="http://www.w3.org/1999/xlink">
    <g>
        <path style="opacity:1" fill="transparent"
            d="M -0.5,-0.5 C 212.833,-0.5 426.167,-0.5 639.5,-0.5C 639.5,159.5 639.5,319.5 639.5,479.5C 426.167,479.5 212.833,479.5 -0.5,479.5C -0.5,319.5 -0.5,159.5 -0.5,-0.5 Z">
        </path>
    </g>
    <g>
        <path style="opacity:1" fill="#546981"
            d="M 301.5,68.5 C 362.062,64.5477 412.228,85.2143 452,130.5C 466.103,147.703 476.269,167.036 482.5,188.5C 478.774,188.823 475.107,188.489 471.5,187.5C 449.363,129.205 407.697,93.7046 346.5,81C 280.854,72.422 228.02,94.2553 188,146.5C 178.756,159.321 171.923,173.321 167.5,188.5C 163.833,188.5 160.167,188.5 156.5,188.5C 172.442,138.05 204.775,102.216 253.5,81C 269.068,74.6877 285.068,70.521 301.5,68.5 Z">
        </path>
    </g>
    <g>
        <path style="opacity:1" fill="#5a6e85"
            d="M 430.5,212.5 C 432.054,211.086 433.388,209.419 434.5,207.5C 433.311,206.571 431.978,206.238 430.5,206.5C 430.5,205.5 430.5,204.5 430.5,203.5C 433.5,203.5 436.5,203.5 439.5,203.5C 438.726,206.381 437.393,209.048 435.5,211.5C 436.689,212.429 438.022,212.762 439.5,212.5C 439.5,213.5 439.5,214.5 439.5,215.5C 436.813,215.664 434.146,215.497 431.5,215C 430.748,214.329 430.414,213.496 430.5,212.5 Z">
        </path>
    </g>
    <g>
        <path style="opacity:1" fill="#8a99a9"
            d="M 274.5,216.5 C 274.5,215.167 274.5,213.833 274.5,212.5C 269.833,212.5 265.167,212.5 260.5,212.5C 260.5,213.5 260.5,214.5 260.5,215.5C 259.566,214.432 259.232,213.099 259.5,211.5C 264.833,211.5 270.167,211.5 275.5,211.5C 275.784,213.415 275.451,215.081 274.5,216.5 Z">
        </path>
    </g>
    <g>
        <path style="opacity:1" fill="#8493a4"
            d="M 333.5,216.5 C 333.5,215.167 333.5,213.833 333.5,212.5C 328.5,212.5 323.5,212.5 318.5,212.5C 318.5,213.833 318.5,215.167 318.5,216.5C 317.549,215.081 317.216,213.415 317.5,211.5C 323.167,211.5 328.833,211.5 334.5,211.5C 334.784,213.415 334.451,215.081 333.5,216.5 Z">
        </path>
    </g>
    <g>
        <path style="opacity:1" fill="#586d84"
            d="M 220.5,211.5 C 223.518,211.335 226.518,211.502 229.5,212C 230.667,212.5 231.5,213.333 232,214.5C 232.667,221.5 232.667,228.5 232,235.5C 231.5,236 231,236.5 230.5,237C 227.167,237.667 223.833,237.667 220.5,237C 220,236.5 219.5,236 219,235.5C 218.333,228.167 218.333,220.833 219,213.5C 219.717,212.956 220.217,212.289 220.5,211.5 Z">
        </path>
    </g>
    <g>
        <path style="opacity:1" fill="#929fae"
            d="M 242.5,212.5 C 240.833,212.5 239.167,212.5 237.5,212.5C 237.5,213.5 237.5,214.5 237.5,215.5C 236.566,214.432 236.232,213.099 236.5,211.5C 238.735,211.205 240.735,211.539 242.5,212.5 Z">
        </path>
    </g>
    <g>
        <path style="opacity:1" fill="#556a81"
            d="M 243.5,219.5 C 243.217,218.711 242.717,218.044 242,217.5C 241.182,223.349 241.348,229.015 242.5,234.5C 242.5,235.5 242.5,236.5 242.5,237.5C 240.833,237.5 239.167,237.5 237.5,237.5C 237.5,236.5 237.5,235.5 237.5,234.5C 238.833,228.167 238.833,221.833 237.5,215.5C 237.5,214.5 237.5,213.5 237.5,212.5C 239.167,212.5 240.833,212.5 242.5,212.5C 243.827,213.8 245.16,215.133 246.5,216.5C 248.216,212.59 251.216,210.923 255.5,211.5C 254.201,220.174 254.201,228.84 255.5,237.5C 253.5,237.5 251.5,237.5 249.5,237.5C 250.539,231.203 250.706,224.87 250,218.5C 248.074,224.386 245.907,224.72 243.5,219.5 Z">
        </path>
    </g>
    <g>
        <path style="opacity:1" fill="#546a81"
            d="M 274.5,216.5 C 271.545,215.841 268.545,215.508 265.5,215.5C 264.527,217.948 264.194,220.615 264.5,223.5C 266.735,223.795 268.735,223.461 270.5,222.5C 271.649,222.791 272.316,223.624 272.5,225C 272.316,226.376 271.649,227.209 270.5,227.5C 269.081,226.549 267.415,226.216 265.5,226.5C 265.423,230.215 265.756,233.881 266.5,237.5C 264.5,237.5 262.5,237.5 260.5,237.5C 261.743,230.025 261.743,222.692 260.5,215.5C 260.5,214.5 260.5,213.5 260.5,212.5C 265.167,212.5 269.833,212.5 274.5,212.5C 274.5,213.833 274.5,215.167 274.5,216.5 Z">
        </path>
    </g>
    <g>
        <path style="opacity:1" fill="#5d7187"
            d="M 282.5,211.5 C 285.187,211.336 287.854,211.503 290.5,212C 291.667,212.5 292.5,213.333 293,214.5C 293.667,221.5 293.667,228.5 293,235.5C 292.5,236 292,236.5 291.5,237C 288.167,237.667 284.833,237.667 281.5,237C 281,236.5 280.5,236 280,235.5C 279.333,228.5 279.333,221.5 280,214.5C 280.698,213.309 281.531,212.309 282.5,211.5 Z">
        </path>
    </g>
    <g>
        <path style="opacity:1" fill="#586c83"
            d="M 297.5,211.5 C 301.182,211.335 304.848,211.501 308.5,212C 309.416,212.374 310.25,212.874 311,213.5C 311.667,217.167 311.667,220.833 311,224.5C 309.509,226.004 307.676,226.837 305.5,227C 309.053,229.993 311.719,233.493 313.5,237.5C 311.5,237.5 309.5,237.5 307.5,237.5C 307.415,235.071 306.415,233.071 304.5,231.5C 303.769,233.401 303.769,235.401 304.5,237.5C 302.5,237.5 300.5,237.5 298.5,237.5C 300.084,228.734 299.751,220.067 297.5,211.5 Z">
        </path>
    </g>
    <g>
        <path style="opacity:1" fill="#5a6e85"
            d="M 333.5,216.5 C 332.07,216.579 330.736,216.246 329.5,215.5C 328.273,222.846 328.273,230.179 329.5,237.5C 327.5,237.5 325.5,237.5 323.5,237.5C 324.392,230.209 324.726,222.876 324.5,215.5C 322.5,215.833 320.5,216.167 318.5,216.5C 318.5,215.167 318.5,213.833 318.5,212.5C 323.5,212.5 328.5,212.5 333.5,212.5C 333.5,213.833 333.5,215.167 333.5,216.5 Z">
        </path>
    </g>
    <g>
        <path style="opacity:1" fill="#5f7288"
            d="M 338.5,211.5 C 343.5,211.5 348.5,211.5 353.5,211.5C 353.5,213.167 353.5,214.833 353.5,216.5C 350.193,215.949 346.86,215.616 343.5,215.5C 343.5,217.833 343.5,220.167 343.5,222.5C 345.92,222.708 348.253,222.374 350.5,221.5C 351.833,223.5 351.833,225.5 350.5,227.5C 348.253,226.626 345.92,226.292 343.5,226.5C 343.5,229.167 343.5,231.833 343.5,234.5C 346.86,234.384 350.193,234.051 353.5,233.5C 353.5,235.167 353.5,236.833 353.5,238.5C 348.5,238.5 343.5,238.5 338.5,238.5C 339.833,229.5 339.833,220.5 338.5,211.5 Z">
        </path>
    </g>
    <g>
        <path style="opacity:1" fill="#f1f3f5"
            d="M 221.5,215.5 C 223.833,215.5 226.167,215.5 228.5,215.5C 228.5,221.833 228.5,228.167 228.5,234.5C 226.208,234.756 224.041,234.423 222,233.5C 221.501,227.509 221.334,221.509 221.5,215.5 Z">
        </path>
    </g>
    <g>
        <path style="opacity:1" fill="#fcfcfc"
            d="M 283.5,215.5 C 285.5,215.5 287.5,215.5 289.5,215.5C 289.5,221.833 289.5,228.167 289.5,234.5C 287.5,234.5 285.5,234.5 283.5,234.5C 283.5,228.167 283.5,221.833 283.5,215.5 Z">
        </path>
    </g>
    <g>
        <path style="opacity:1" fill="#eff1f3"
            d="M 303.5,215.5 C 305.167,215.5 306.833,215.5 308.5,215.5C 308.802,218.059 308.468,220.393 307.5,222.5C 306.167,222.5 304.833,222.5 303.5,222.5C 303.5,220.167 303.5,217.833 303.5,215.5 Z">
        </path>
    </g>
    <g>
        <path style="opacity:1" fill="#7d8e9f"
            d="M 213.5,216.5 C 213.5,215.167 213.5,213.833 213.5,212.5C 210.428,212.183 207.428,212.516 204.5,213.5C 204.863,214.183 205.196,214.85 205.5,215.5C 203.547,221.074 202.88,227.074 203.5,233.5C 202.509,226.687 202.175,219.687 202.5,212.5C 206.298,211.517 210.298,211.183 214.5,211.5C 214.784,213.415 214.451,215.081 213.5,216.5 Z">
        </path>
    </g>
    <g>
        <path style="opacity:1" fill="#51667e"
            d="M 213.5,216.5 C 210.873,215.908 208.206,215.575 205.5,215.5C 205.196,214.85 204.863,214.183 204.5,213.5C 207.428,212.516 210.428,212.183 213.5,212.5C 213.5,213.833 213.5,215.167 213.5,216.5 Z">
        </path>
    </g>
    <g>
        <path style="opacity:1" fill="#a1adb9"
            d="M 265.5,215.5 C 265.5,217.833 265.5,220.167 265.5,222.5C 267.167,222.5 268.833,222.5 270.5,222.5C 268.735,223.461 266.735,223.795 264.5,223.5C 264.194,220.615 264.527,217.948 265.5,215.5 Z">
        </path>
    </g>
    <g>
        <path style="opacity:1" fill="#9aa6b4"
            d="M 303.5,215.5 C 303.5,217.833 303.5,220.167 303.5,222.5C 304.833,222.5 306.167,222.5 307.5,222.5C 306.081,223.451 304.415,223.784 302.5,223.5C 302.194,220.615 302.527,217.948 303.5,215.5 Z">
        </path>
    </g>
    <g>
        <path style="opacity:1" fill="#adb7c2"
            d="M 243.5,219.5 C 242.513,224.305 242.179,229.305 242.5,234.5C 241.348,229.015 241.182,223.349 242,217.5C 242.717,218.044 243.217,218.711 243.5,219.5 Z">
        </path>
    </g>
    <g>
        <path style="opacity:1" fill="#97a3b2"
            d="M 270.5,222.5 C 271.209,221.596 272.209,221.263 273.5,221.5C 273.5,223.833 273.5,226.167 273.5,228.5C 272.209,228.737 271.209,228.404 270.5,227.5C 271.649,227.209 272.316,226.376 272.5,225C 272.316,223.624 271.649,222.791 270.5,222.5 Z">
        </path>
    </g>
    <g>
        <path style="opacity:1" fill="#536880"
            d="M 202.5,212.5 C 202.175,219.687 202.509,226.687 203.5,233.5C 206.681,234.59 210.015,234.59 213.5,233.5C 213.5,234.833 213.5,236.167 213.5,237.5C 209.486,237.666 205.486,237.499 201.5,237C 201,236.5 200.5,236 200,235.5C 199.333,228.5 199.333,221.5 200,214.5C 200.708,213.619 201.542,212.953 202.5,212.5 Z">
        </path>
    </g>
    <g>
        <path style="opacity:1" fill="#5e7288"
            d="M 430.5,212.5 C 429.711,212.783 429.044,213.283 428.5,214C 441.882,228.879 443.049,244.712 432,261.5C 416.921,277.548 400.088,279.715 381.5,268C 365.844,253.473 363.344,236.973 374,218.5C 387.551,202.242 403.718,199.075 422.5,209C 424.833,209.333 427.167,209.667 429.5,210C 430.252,210.671 430.586,211.504 430.5,212.5 Z">
        </path>
    </g>
    <g>
        <path style="opacity:1" fill="#fcfcfd"
            d="M 396.5,206.5 C 403.402,206.066 410.068,207.066 416.5,209.5C 415.359,210.425 415.359,211.259 416.5,212C 419.371,212.118 422.038,212.784 424.5,214C 421.667,217.5 418.833,221 416,224.5C 415.517,225.448 415.351,226.448 415.5,227.5C 420.5,227.5 425.5,227.5 430.5,227.5C 430.5,226.5 430.5,225.5 430.5,224.5C 427.15,224.665 423.817,224.498 420.5,224C 422.293,221.205 424.46,218.705 427,216.5C 437.633,228.68 439.3,242.013 432,256.5C 419.858,272.262 404.691,276.095 386.5,268C 374.177,259.387 369.011,247.554 371,232.5C 375.017,219.318 383.517,210.651 396.5,206.5 Z">
        </path>
    </g>
    <g>
        <path style="opacity:1" fill="#607489"
            d="M 409.5,230.5 C 410.5,230.5 411.5,230.5 412.5,230.5C 412.376,235.547 414.709,237.38 419.5,236C 420.5,234.333 421.5,232.667 422.5,231C 424.968,233.047 424.635,235.38 421.5,238C 414.088,241.1 410.088,238.6 409.5,230.5 Z">
        </path>
    </g>
    <g>
        <path style="opacity:1" fill="#60748a"
            d="M 383.5,230.5 C 384.376,230.369 385.043,230.702 385.5,231.5C 386.8,236.794 389.634,237.794 394,234.5C 394.49,233.207 394.657,231.873 394.5,230.5C 395.5,230.5 396.5,230.5 397.5,230.5C 397.699,235.971 395.033,238.971 389.5,239.5C 384.202,238.549 382.202,235.549 383.5,230.5 Z">
        </path>
    </g>
    <g>
        <path style="opacity:1" fill="#a3aebb"
            d="M 237.5,234.5 C 237.5,235.5 237.5,236.5 237.5,237.5C 239.167,237.5 240.833,237.5 242.5,237.5C 242.5,236.5 242.5,235.5 242.5,234.5C 243.434,235.568 243.768,236.901 243.5,238.5C 241.167,238.5 238.833,238.5 236.5,238.5C 236.232,236.901 236.566,235.568 237.5,234.5 Z">
        </path>
    </g>
    <g>
        <path style="opacity:1" fill="#5e7288"
            d="M 265.5,245.5 C 269.475,249.021 269.141,252.354 264.5,255.5C 265.253,257.753 266.586,259.587 268.5,261C 267.833,261.667 267.167,261.667 266.5,261C 264.607,258.697 262.607,256.53 260.5,254.5C 259.534,256.396 259.201,258.396 259.5,260.5C 258.513,255.695 258.179,250.695 258.5,245.5C 260.833,245.5 263.167,245.5 265.5,245.5 Z">
        </path>
    </g>
    <g>
        <path style="opacity:1" fill="#9ba8b5"
            d="M 265.5,245.5 C 263.167,245.5 260.833,245.5 258.5,245.5C 258.179,250.695 258.513,255.695 259.5,260.5C 259.44,261.043 259.107,261.376 258.5,261.5C 257.505,255.872 257.171,250.206 257.5,244.5C 260.385,244.194 263.052,244.527 265.5,245.5 Z">
        </path>
    </g>
    <g>
        <path style="opacity:1" fill="#f5f6f7"
            d="M 259.5,246.5 C 262.641,245.908 264.974,246.908 266.5,249.5C 265.531,252.987 263.198,254.32 259.5,253.5C 259.5,251.167 259.5,248.833 259.5,246.5 Z">
        </path>
    </g>
    <g>
        <path style="opacity:1" fill="#61748a"
            d="M 296.5,260.5 C 295.833,257.833 295.167,255.167 294.5,252.5C 293.624,252.631 292.957,252.298 292.5,251.5C 293.325,250.614 294.325,250.281 295.5,250.5C 295.833,246.5 296.167,246.5 296.5,250.5C 300.5,251.167 300.5,251.833 296.5,252.5C 296.5,255.167 296.5,257.833 296.5,260.5 Z">
        </path>
    </g>
    <g>
        <path style="opacity:1" fill="#63768b"
            d="M 323.5,246.5 C 324.434,247.568 324.768,248.901 324.5,250.5C 328.5,251.167 328.5,251.833 324.5,252.5C 324.167,264.5 323.833,264.5 323.5,252.5C 319.5,251.833 319.5,251.167 323.5,250.5C 323.5,249.167 323.5,247.833 323.5,246.5 Z">
        </path>
    </g>
    <g>
        <path style="opacity:1" fill="#63768c"
            d="M 203.5,245.5 C 204.239,245.369 204.906,245.536 205.5,246C 206.64,247.973 207.973,249.807 209.5,251.5C 211.167,249.5 212.833,247.5 214.5,245.5C 214.543,248.088 213.377,250.421 211,252.5C 210,264.5 209,264.5 208,252.5C 206.25,250.266 204.75,247.932 203.5,245.5 Z">
        </path>
    </g>
    <g>
        <path style="opacity:1" fill="#60748a"
            d="M 221.5,250.5 C 226.813,250.644 228.979,253.31 228,258.5C 224.206,262.741 220.873,262.408 218,257.5C 217.576,254.348 218.743,252.014 221.5,250.5 Z">
        </path>
    </g>
    <g>
        <path style="opacity:1" fill="#9fabb8"
            d="M 245.5,251.5 C 244.167,254.5 244.167,257.5 245.5,260.5C 245.44,261.043 245.107,261.376 244.5,261.5C 243.167,257.833 243.167,254.167 244.5,250.5C 245.107,250.624 245.44,250.957 245.5,251.5 Z">
        </path>
    </g>
    <g>
        <path style="opacity:1" fill="#556b82"
            d="M 245.5,260.5 C 244.167,257.5 244.167,254.5 245.5,251.5C 250.392,250.66 250.559,251.326 246,253.5C 245.503,255.81 245.337,258.143 245.5,260.5 Z">
        </path>
    </g>
    <g>
        <path style="opacity:1" fill="#718296"
            d="M 342.5,250.5 C 343.75,250.577 344.583,251.244 345,252.5C 349.46,249.333 352.293,250.5 353.5,256C 352.779,261.327 349.946,262.827 345,260.5C 344.814,262.9 344.314,265.234 343.5,267.5C 342.505,261.872 342.171,256.206 342.5,250.5 Z">
        </path>
    </g>
    <g>
        <path style="opacity:1" fill="#f7f8f9"
            d="M 221.5,252.5 C 227.016,252.473 228.349,254.64 225.5,259C 219.738,259.418 218.404,257.251 221.5,252.5 Z">
        </path>
    </g>
    <g>
        <path style="opacity:1" fill="#6a7d91"
            d="M 284.5,250.5 C 286.827,250.247 288.827,250.914 290.5,252.5C 288.883,252.669 287.216,253.003 285.5,253.5C 287.542,254.91 289.542,256.41 291.5,258C 290.202,261.205 287.868,262.205 284.5,261C 284.043,260.586 283.709,260.086 283.5,259.5C 285.312,259.574 287.312,259.241 289.5,258.5C 287.821,257.218 285.987,256.218 284,255.5C 283.36,253.735 283.527,252.068 284.5,250.5 Z">
        </path>
    </g>
    <g>
        <path style="opacity:1" fill="#9da9b6"
            d="M 294.5,252.5 C 295.167,255.167 295.833,257.833 296.5,260.5C 296.44,261.043 296.107,261.376 295.5,261.5C 294.516,258.572 294.183,255.572 294.5,252.5 Z">
        </path>
    </g>
    <g>
        <path style="opacity:1" fill="#f7f8f9"
            d="M 346.5,252.5 C 351.328,252.385 352.661,254.552 350.5,259C 344.681,259.526 343.348,257.359 346.5,252.5 Z">
        </path>
    </g>
    <g>
        <path style="opacity:1" fill="#5c7187"
            d="M 273.5,250.5 C 278.186,249.984 280.519,251.984 280.5,256.5C 277.753,256.187 275.086,256.52 272.5,257.5C 273.171,258.946 274.338,259.612 276,259.5C 277.55,259.05 279.05,258.883 280.5,259C 278.316,261.368 275.649,262.035 272.5,261C 269.64,257.151 269.973,253.651 273.5,250.5 Z">
        </path>
    </g>
    <g>
        <path style="opacity:1" fill="#6a7c91"
            d="M 315.5,260.5 C 317.113,259.162 317.613,257.495 317,255.5C 313.775,254.722 310.775,253.388 308,251.5C 307.66,246.178 310.16,244.011 315.5,245C 316.5,245.833 317.5,246.667 318.5,247.5C 318.167,247.833 317.833,248.167 317.5,248.5C 314.448,245.689 311.781,245.856 309.5,249C 309.645,249.772 309.978,250.439 310.5,251C 313.443,251.942 316.276,253.108 319,254.5C 320.392,258.22 319.225,260.22 315.5,260.5 Z">
        </path>
    </g>
    <g>
        <path style="opacity:1" fill="#6b7d92"
            d="M 332.5,250.5 C 338.555,250.052 340.721,252.719 339,258.5C 335.206,262.741 331.873,262.408 329,257.5C 328.576,254.348 329.743,252.014 332.5,250.5 Z">
        </path>
    </g>
    <g>
        <path style="opacity:1" fill="#f8f8f9"
            d="M 332.5,252.5 C 338.016,252.473 339.349,254.64 336.5,259C 330.738,259.418 329.404,257.251 332.5,252.5 Z">
        </path>
    </g>
    <g>
        <path style="opacity:1" fill="#d9dee3"
            d="M 273.5,252.5 C 275.977,252.051 277.977,252.717 279.5,254.5C 277.167,255.833 274.833,255.833 272.5,254.5C 272.863,253.817 273.196,253.15 273.5,252.5 Z">
        </path>
    </g>
    <g>
        <path style="opacity:1" fill="#52687f"
            d="M 395.5,254.5 C 401.167,254.5 406.833,254.5 412.5,254.5C 412.5,255.5 412.5,256.5 412.5,257.5C 406.824,257.666 401.157,257.499 395.5,257C 394.402,256.23 394.402,255.397 395.5,254.5 Z">
        </path>
    </g>
    <g>
        <path style="opacity:1" fill="#63778c"
            d="M 231.5,250.5 C 233.388,252.988 234.055,255.988 233.5,259.5C 235.722,259.822 237.556,259.155 239,257.5C 239.333,255.167 239.667,252.833 240,250.5C 240.667,254.167 240.667,257.833 240,261.5C 238.605,260.57 237.105,260.57 235.5,261.5C 233.971,261.471 232.804,260.804 232,259.5C 231.502,256.518 231.335,253.518 231.5,250.5 Z">
        </path>
    </g>
    <g>
        <path style="opacity:1" fill="#62768b"
            d="M 315.5,260.5 C 312.415,262.013 309.749,261.346 307.5,258.5C 307.833,258.167 308.167,257.833 308.5,257.5C 310.246,259.854 312.579,260.854 315.5,260.5 Z">
        </path>
    </g>
    <g>
        <path style="opacity:1" fill="#546a81"
            d="M 174.5,309.5 C 173.526,311.085 172.026,312.085 170,312.5C 169.817,315.365 169.317,318.031 168.5,320.5C 162.793,310.047 158.46,299.047 155.5,287.5C 159.226,287.177 162.893,287.511 166.5,288.5C 168.902,295.632 171.569,302.632 174.5,309.5 Z">
        </path>
    </g>
    <g>
        <path style="opacity:1" fill="#546981"
            d="M 171.5,325.5 C 175.335,325.583 179.002,324.917 182.5,323.5C 213.909,371.973 258.742,397.639 317,400.5C 385.634,398.045 435.301,366.378 466,305.5C 468.461,299.951 470.628,294.284 472.5,288.5C 476.107,287.511 479.774,287.177 483.5,287.5C 463.355,350.809 421.022,390.642 356.5,407C 283.912,419.766 225.079,397.266 180,339.5C 176.904,334.972 174.071,330.305 171.5,325.5 Z">
        </path>
    </g>
    <g>
        <path style="opacity:1" fill="#556b82"
            d="M 176.5,313.5 C 178.008,315.181 179.008,317.181 179.5,319.5C 178.969,322.779 176.969,324.113 173.5,323.5C 172.361,320.575 171.861,317.575 172,314.5C 173.356,313.62 174.856,313.286 176.5,313.5 Z">
        </path>
    </g>
    <g>
        <path style="opacity:1" fill="#6d7f93"
            d="M 174.5,309.5 C 175.674,310.514 176.34,311.847 176.5,313.5C 174.856,313.286 173.356,313.62 172,314.5C 171.861,317.575 172.361,320.575 173.5,323.5C 176.969,324.113 178.969,322.779 179.5,319.5C 180.974,320.436 181.974,321.77 182.5,323.5C 179.002,324.917 175.335,325.583 171.5,325.5C 170.263,324.035 169.263,322.368 168.5,320.5C 169.317,318.031 169.817,315.365 170,312.5C 172.026,312.085 173.526,311.085 174.5,309.5 Z">
        </path>
    </g>
</svg>